<svg id="Layer_2" enable-background="new 0 0 512 512" height="512" viewBox="0 0 512 512" width="512" xmlns="http://www.w3.org/2000/svg"><g><g><g><path d="m104 448h26c5.523 0 10-4.477 10-10v-190c0-5.523-4.477-10-10-10h-26c-5.523 0-10 4.477-10 10v190c0 5.523 4.477 10 10 10z" fill="#edeff1"/></g><g><path d="m58 225h32v23h-32z" fill="#edeff1" transform="matrix(-1 0 0 -1 148 473)"/></g><g><path d="m50 438h44v-190h-44c-22.091 0-40 17.909-40 40v110c0 22.091 17.909 40 40 40z" fill="#6e83b7"/></g><g><path d="m408 448h-26c-5.523 0-10-4.477-10-10v-190c0-5.523 4.477-10 10-10h26c5.523 0 10 4.477 10 10v190c0 5.523-4.477 10-10 10z" fill="#edeff1"/></g><g><path d="m422 225h32v23h-32z" fill="#edeff1"/></g><g><path d="m462 438h-44v-190h44c22.091 0 40 17.909 40 40v110c0 22.091-17.909 40-40 40z" fill="#6e83b7"/></g><g><path d="m414 225v-9c0-87.122-70.878-158-158-158s-158 70.878-158 158v9h-48v-9c0-113.589 92.411-206 206-206s206 92.411 206 206v9z" fill="#6e83b7"/></g><g><path d="m256 58c-80.002 0-146.299 59.771-156.601 137 7.862 0 14.8-5.317 16.654-12.957 15.303-63.069 72.239-110.043 139.947-110.043s124.644 46.974 139.947 110.043c1.854 7.641 8.792 12.957 16.654 12.957-10.302-77.229-76.599-137-156.601-137z" fill="#466089"/></g><g><path d="m382 489h-66v-24h58l44-33v-45h24v57z" fill="#d3d3d3"/></g><g><path d="m306 502h-50c-5.523 0-10-4.477-10-10v-30c0-5.523 4.477-10 10-10h50c5.523 0 10 4.477 10 10v30c0 5.523-4.477 10-10 10z" fill="#466089"/></g><g><path d="m418 357h24v30h-24z" fill="#466089"/></g></g><g><circle cx="256" cy="350" fill="#80d6fb" r="80"/></g><g><g><path d="m250 362.289v-76.578l56.725 38.289zm12-54v31.422l23.275-15.711z" fill="#edeff1"/></g><g><path d="m219.356 382.973-6.712-9.946 32.631-22.027-32.631-22.027 6.712-9.946 47.369 31.973z" fill="#edeff1"/></g><g><path d="m250 414.056v-74.112l57.01 37.056zm12-52v29.888l22.99-14.944z" fill="#edeff1"/></g></g></g></svg>