<svg id="Capa_1" enable-background="new 0 0 512 512" height="512" viewBox="0 0 512 512" width="512" xmlns="http://www.w3.org/2000/svg"><g><g><g><path d="m49.927 106.496v299.008c0 16.737 13.568 30.305 30.305 30.305h351.537c16.737 0 30.305-13.568 30.305-30.305v-299.008z" fill="#f4fbff"/></g><g><path d="m438.839 106.496v299.008c0 16.737-13.568 30.305-30.305 30.305h23.234c16.737 0 30.305-13.568 30.305-30.305v-299.008z" fill="#e4f6ff"/></g><g><path d="m49.927 66.089v40.407h412.146v-40.407c0-16.737-13.568-30.305-30.305-30.305h-351.536c-16.737.001-30.305 13.569-30.305 30.305z" fill="#95d6a4"/></g><g><path d="m431.768 35.785h-23.234c16.737 0 30.305 13.568 30.305 30.305v40.407h23.234v-40.408c0-16.736-13.568-30.304-30.305-30.304z" fill="#78c2a4"/></g><g><g><path d="m225.695 431.768h60.61v36.366h-60.61z" fill="#2b4d66"/></g><g><path d="m237.817 468.134h36.366v36.366h-36.366z" fill="#4a80aa"/></g><g><circle cx="256" cy="314.589" fill="#407093" r="121.22"/></g><g><path d="m329.307 218.049c15.483 20.358 24.679 45.757 24.679 73.307 0 66.948-54.272 121.22-121.22 121.22-27.55 0-52.948-9.197-73.307-24.679 22.141 29.113 57.143 47.913 96.54 47.913 66.948 0 121.22-54.272 121.22-121.22.001-39.398-18.8-74.4-47.912-96.541z" fill="#365e7d"/></g><g><circle cx="256" cy="314.589" fill="#e4f6ff" r="88.894"/></g><g><path d="m309.682 243.735c11.319 14.916 18.04 33.513 18.04 53.682 0 49.095-39.799 88.894-88.894 88.894-20.169 0-38.765-6.721-53.682-18.04 16.233 21.393 41.929 35.212 70.855 35.212 49.095 0 88.894-39.799 88.894-88.894-.001-28.926-13.82-54.621-35.213-70.854z" fill="#d3effb"/></g></g></g><g><g><g><path d="m202.461 7.5h32.325v59.6h-32.325z" fill="#4a80aa"/></g></g><g><g><path d="m287.315 7.5h32.325v59.6h-32.325z" fill="#4a80aa"/></g></g><g><g><path d="m372.169 7.5h32.325v59.6h-32.325z" fill="#4a80aa"/></g></g><g><g><path d="m117.608 7.5h32.325v59.6h-32.325z" fill="#4a80aa" transform="matrix(-1 0 0 -1 267.541 74.6)"/></g></g></g><g><path d="m462.07 195.16c-4.143 0-7.5 3.357-7.5 7.5v202.84c0 12.577-10.229 22.81-22.801 22.81h-115.521c40.696-21.648 68.472-64.498 68.472-113.72 0-70.977-57.743-128.72-128.72-128.72-13.59 0-26.95 2.105-39.711 6.258-3.938 1.282-6.093 5.514-4.811 9.453 1.282 3.938 5.51 6.094 9.453 4.811 11.258-3.664 23.057-5.521 35.068-5.521 62.705 0 113.72 51.015 113.72 113.72s-51.014 113.719-113.719 113.719-113.72-51.015-113.72-113.72c0-37.415 18.417-72.444 49.266-93.704 3.411-2.351 4.271-7.021 1.92-10.432s-7.022-4.271-10.432-1.92c-34.911 24.061-55.754 63.707-55.754 106.056 0 49.222 27.776 92.072 68.472 113.72h-115.522c-12.572 0-22.801-10.232-22.801-22.81v-55.91c0-4.143-3.357-7.5-7.5-7.5s-7.5 3.357-7.5 7.5v55.91c0 20.849 16.957 37.81 37.801 37.81h137.965v24.824c0 4.143 3.357 7.5 7.5 7.5h4.622v28.866c0 4.143 3.357 7.5 7.5 7.5s7.5-3.357 7.5-7.5v-28.866h21.365v28.866c0 4.143 3.357 7.5 7.5 7.5s7.5-3.357 7.5-7.5v-28.866h4.622c4.143 0 7.5-3.357 7.5-7.5v-24.824h137.966c20.844 0 37.801-16.961 37.801-37.81v-202.84c-.001-4.142-3.358-7.5-7.501-7.5zm-183.265 265.474h-45.609v-17.324h45.609z"/><path d="m159.605 314.59c0 53.151 43.242 96.394 96.395 96.394s96.395-43.242 96.395-96.394-43.242-96.395-96.395-96.395-96.395 43.243-96.395 96.395zm96.395-81.395c44.881 0 81.395 36.514 81.395 81.395s-36.514 81.393-81.395 81.393-81.395-36.513-81.395-81.394 36.514-81.394 81.395-81.394z"/><path d="m431.77 28.28h-19.775v-20.78c0-4.143-3.357-7.5-7.5-7.5h-32.325c-4.143 0-7.5 3.357-7.5 7.5v20.78h-37.528v-20.78c0-4.143-3.357-7.5-7.5-7.5h-32.325c-4.143 0-7.5 3.357-7.5 7.5v20.78h-37.529v-20.78c0-4.143-3.357-7.5-7.5-7.5h-32.325c-4.143 0-7.5 3.357-7.5 7.5v20.78h-37.528v-20.78c0-4.143-3.357-7.5-7.5-7.5h-32.325c-4.143 0-7.5 3.357-7.5 7.5v20.78h-29.88c-20.844 0-37.801 16.961-37.801 37.81v248.5c0 4.143 3.357 7.5 7.5 7.5s7.5-3.357 7.5-7.5v-200.59h397.141v53.66c0 4.143 3.357 7.5 7.5 7.5s7.5-3.357 7.5-7.5v-101.57c0-20.849-16.957-37.81-37.8-37.81zm-34.776-13.28v20.703c0 .026-.004.051-.004.077s.004.051.004.077v23.743h-17.325v-23.8c0-.007.001-.013.001-.019s-.001-.013-.001-.019v-20.762zm-84.853 0v20.761c0 .007-.001.013-.001.019s.001.013.001.019v23.8h-17.325v-23.722c0-.033.005-.064.005-.097s-.004-.064-.005-.097v-20.683zm-102.18 0h17.325v44.6h-17.325zm-67.528 0v20.722c0 .02-.003.038-.003.058s.003.038.003.058v23.762h-17.325v-23.762c0-.02.003-.038.003-.058s-.003-.038-.003-.058v-20.722zm-85.003 84v-32.91c0-12.577 10.229-22.81 22.801-22.81h29.877v23.82c0 4.143 3.357 7.5 7.5 7.5h32.325c4.143 0 7.5-3.357 7.5-7.5v-23.82h37.528v23.82c0 4.143 3.357 7.5 7.5 7.5h32.325c4.143 0 7.5-3.357 7.5-7.5v-23.82h37.529v23.82c0 4.143 3.357 7.5 7.5 7.5h32.325c4.143 0 7.5-3.357 7.5-7.5v-23.82h37.528v23.82c0 4.143 3.357 7.5 7.5 7.5h32.325c4.143 0 7.5-3.357 7.5-7.5v-23.82h19.775c12.572 0 22.801 10.232 22.801 22.81v32.91z"/></g></g></svg>