<svg id="Capa_1" enable-background="new 0 0 512 512" height="512" viewBox="0 0 512 512" width="512" xmlns="http://www.w3.org/2000/svg"><g><g><path d="m463.962 405.303c30.226-42.028 48.038-93.583 48.038-149.303 0-141.385-114.615-256-256-256s-256 114.615-256 256c0 55.72 17.812 107.275 48.038 149.303z" fill="#81c66d"/></g><g><path d="m199.534 90.867c24.604-31.438.223-62.257-11.291-62.627-4.054-.13-6.473 2.126-7.905 5.105-3.043 6.328-9.906 9.965-16.769 8.481-7.994-1.728-17.136-1.988-21.733 3.886s-2.148 14.686 1.451 22.03c3.088 6.302 1.226 13.839-4.188 18.304-2.555 2.107-4.172 5-3.069 8.911 3.125 11.089 38.9 27.349 63.504-4.09z" fill="#543e5b"/></g><g><path d="m312.466 90.867c-24.604-31.438-.223-62.257 11.291-62.627 4.054-.13 6.473 2.126 7.905 5.105 3.043 6.328 9.906 9.965 16.769 8.481 7.994-1.728 17.136-1.988 21.733 3.886s2.148 14.686-1.451 22.03c-3.088 6.302-1.226 13.839 4.188 18.304 2.555 2.107 4.172 5 3.069 8.911-3.125 11.089-38.9 27.349-63.504-4.09z" fill="#543e5b"/></g><g><path d="m332.988 118.431s10.97-26.71 30.526-20.509-.473 64.082-38.634 67.729z" fill="#f9ba8f"/></g><g><path d="m179.012 118.431s-10.97-26.71-30.526-20.509.473 64.082 38.634 67.729z" fill="#fcad6d"/></g><g><path d="m48.038 405.303c9.513 13.227 20.258 25.508 32.064 36.679h351.796c11.806-11.171 22.551-23.452 32.064-36.679-4.521-14.442-10.579-18.984-10.579-18.984s18.383-52.085-6.721-87.319c-14.689-20.617-35.602-29.957-50.426-34.158-10.729-3.041-20.047-9.588-26.737-18.509-24.349-32.474-72.372-45.375-72.372-45.375h-41.127-41.128s-48.023 12.902-72.372 45.375c-6.69 8.922-16.008 15.469-26.737 18.509-14.823 4.201-35.736 13.541-50.425 34.158-25.104 35.234-6.721 87.319-6.721 87.319s-6.058 4.542-10.579 18.984z" fill="#f9ba8f"/></g><g><path d="m402.558 378.308c-82.246-2.802-225.753-66.634-237.749-153.288-8.19 5.882-16.035 12.946-22.309 21.313-6.69 8.922-16.008 15.469-26.737 18.509-3.121.885-6.515 2.001-10.061 3.398-.623 37.639-1.779 94.813-2.039 107.577-.034 1.647-.469 3.246-1.277 4.682-3.652 6.492-14.688 27.88-22.284 61.482 45.866 43.4 107.77 70.019 175.898 70.019 68.004 0 129.806-26.524 175.646-69.783-6.643-29.495-15.946-49.616-20.626-58.558-1.661-3.173-4.882-5.229-8.462-5.351z" fill="#e1715a"/></g><g><path d="m126.473 260.39c-3.363 1.88-6.947 3.386-10.709 4.452-3.121.885-6.515 2.001-10.061 3.398-.623 37.639-1.779 94.813-2.039 107.577-.034 1.647-.469 3.246-1.277 4.682-3.652 6.492-14.688 27.88-22.284 61.482 45.865 43.4 107.769 70.019 175.897 70.019 68.004 0 129.806-26.524 175.646-69.783-266.23 62.036-300.793-137.316-305.173-181.827z" fill="#c15655"/></g><g><path d="m173.443 125.337c-10.906 0-19.96 8.314-21.023 19.169-4.915 50.204-27.423 76.908-20.553 91.654 7.697 16.521 20.942 5.362 22.167 21.875 1.226 16.513-12.092 27.689 0 41.294s25.373 6.803 28.995 25.268 36.07 43.897 72.97 43.897 69.348-25.432 72.97-43.897 16.903-11.662 28.995-25.268-1.226-24.782 0-41.294c1.226-16.513 14.47-5.354 22.167-21.875 6.87-14.746-15.638-41.45-20.553-91.654-1.063-10.855-10.116-19.169-21.023-19.169z" fill="#665364"/></g><g><path d="m227.298 310.66c-1.702-23.149-50.383-21.787-45.277-40.511s-9.192-30.979-20.085-41.872c-10.825-10.825 4.892-48.406 5.092-101.924-7.861 2.518-13.763 9.524-14.607 18.153-4.915 50.204-27.423 76.908-20.553 91.654 7.697 16.521 20.942 5.362 22.167 21.875s-12.092 27.689 0 41.294 25.373 6.803 28.995 25.268 36.07 43.897 72.97 43.897c17.426 0 33.854-5.675 46.727-13.606-43.031-.002-73.727-21.08-75.429-44.228z" fill="#543e5b"/></g><g><path d="m256.265 23.256c-49.551-.144-89.6 41.416-89.413 90.967.161 42.802 6.129 88.258 33.329 113.295 10.749 9.894 27.973 7.247 35.39-5.34 5.562-9.44 12.47-16.88 20.429-16.88 7.962 0 14.872 7.445 20.435 16.889 7.359 12.493 24.477 15.293 35.184 5.515 27.757-25.351 33.533-71.863 33.533-115.295-.001-49.149-39.772-89.008-88.887-89.151z" fill="#f9d0b4"/></g><g><path d="m166.852 114.223c.161 42.802 6.129 88.258 33.329 113.295 9.653 8.886 24.524 7.651 32.828-1.809-25.955-25.744-31.437-70.985-31.437-113.302 0-43.294 30.863-79.375 71.787-87.455-5.532-1.092-11.246-1.678-17.094-1.695-49.551-.145-89.6 41.415-89.413 90.966z" fill="#f9ba8f"/></g></g><g><path d="m275.4 145.117c-7.674-.808-13.132 2.269-16.266 4.852-1.815 1.496-4.454 1.496-6.269 0-3.133-2.583-8.592-5.66-16.266-4.852-7.966.839-24.306 15.545-35.465 26.484-3.554 3.484-.416 9.453 4.466 8.482 15.869-3.157 39.346-7.42 50.399-7.42s34.53 4.263 50.399 7.42c4.882.971 8.02-4.998 4.466-8.482-11.158-10.939-27.498-25.646-35.464-26.484z" fill="#665364"/></g></svg>