<svg id="Capa_1" enable-background="new 0 0 512 512" height="512" viewBox="0 0 512 512" width="512" xmlns="http://www.w3.org/2000/svg"><g><path d="m442.733 169.621c.229-.093.41-.274.505-.502s.095-.484 0-.712c-19.246-46.289-58.336-82.247-106.657-97.252-.236-.073-.491-.049-.709.066s-.381.313-.453.549l-48.792 160.045c-.104.343-.002.715.262.956.265.241.645.309.976.173z" fill="#ffe07d"/><path d="m418.604 179.487 24.129-9.866c.229-.093.41-.274.505-.502s.095-.484 0-.712c-19.246-46.289-58.336-82.247-106.657-97.252-.236-.073-.491-.049-.709.066s-.381.313-.453.549l-7.316 23.999c39.606 15.635 71.924 45.7 90.501 83.718z" fill="#ffd064"/><path d="m288.829 109.042c.072-.236.047-.491-.07-.709s-.315-.38-.552-.45c-15.441-4.609-31.799-7.093-48.739-7.093-93.98 0-170.165 76.185-170.165 170.165 0 93.979 76.185 170.165 170.165 170.165 20.141 0 39.463-3.502 57.394-9.925.232-.083.422-.256.527-.479.105-.224.116-.48.032-.712l-57.847-158.758c-.069-.189-.074-.396-.016-.588z" fill="#dd636e"/><path d="m259.258 101.936-49.765 168.732c-.055.186-.05.385.014.568l58.54 167.482c9.922-1.679 19.556-4.208 28.815-7.525.232-.083.422-.256.527-.479.105-.224.116-.48.032-.712l-57.847-158.757c-.069-.189-.074-.396-.016-.588l49.271-161.616c.072-.236.047-.491-.07-.709s-.315-.38-.552-.45c-9.339-2.787-19.014-4.792-28.949-5.946z" fill="#da4a54"/><path d="m456.223 270.955c0-22.469-4.366-43.914-12.277-63.551-.092-.229-.272-.412-.499-.508s-.484-.098-.712-.004l-155.85 63.725c-.461.189-.691.708-.52 1.176l57.648 158.21c.085.232.258.421.482.524s.48.114.712.028c64.819-24.03 111.016-86.419 111.016-159.6z" fill="#b3e59f"/><path d="m443.945 207.404c-.092-.229-.272-.412-.499-.508s-.484-.098-.712-.004l-20.064 8.204c3.803 14.126 5.844 28.975 5.844 44.304 0 65.657-37.188 122.623-91.647 150.998l7.144 19.606c.085.232.258.421.482.524s.48.114.712.028c64.821-24.031 111.018-86.42 111.018-159.601 0-22.469-4.366-43.914-12.278-63.551z" fill="#95d6a4"/><g><g><path d="m374.064 63.881c-4.143 0-7.5-3.357-7.5-7.5v-22.752c0-4.143 3.357-7.5 7.5-7.5h27.094c4.143 0 7.5 3.357 7.5 7.5s-3.357 7.5-7.5 7.5h-19.594v15.252c0 4.142-3.357 7.5-7.5 7.5z" fill="#4a80aa"/></g><g><path d="m490.237 15h-56.147c-4.143 0-7.5-3.357-7.5-7.5s3.357-7.5 7.5-7.5h56.147c4.143 0 7.5 3.357 7.5 7.5s-3.357 7.5-7.5 7.5z" fill="#2b4d66"/></g><g><path d="m490.237 37.635h-56.147c-4.143 0-7.5-3.357-7.5-7.5s3.357-7.5 7.5-7.5h56.147c4.143 0 7.5 3.357 7.5 7.5s-3.357 7.5-7.5 7.5z" fill="#2b4d66"/></g><g><path d="m490.237 60.271h-56.147c-4.143 0-7.5-3.357-7.5-7.5s3.357-7.5 7.5-7.5h56.147c4.143 0 7.5 3.357 7.5 7.5s-3.357 7.5-7.5 7.5z" fill="#2b4d66"/></g></g><g><g><path d="m401.158 485.87h-27.094c-4.143 0-7.5-3.357-7.5-7.5v-22.752c0-4.143 3.357-7.5 7.5-7.5s7.5 3.357 7.5 7.5v15.252h19.594c4.143 0 7.5 3.357 7.5 7.5s-3.357 7.5-7.5 7.5z" fill="#4a80aa"/></g><g><path d="m490.237 512h-56.147c-4.143 0-7.5-3.357-7.5-7.5s3.357-7.5 7.5-7.5h56.147c4.143 0 7.5 3.357 7.5 7.5s-3.357 7.5-7.5 7.5z" fill="#2b4d66"/></g><g><path d="m490.237 489.364h-56.147c-4.143 0-7.5-3.357-7.5-7.5s3.357-7.5 7.5-7.5h56.147c4.143 0 7.5 3.357 7.5 7.5s-3.357 7.5-7.5 7.5z" fill="#2b4d66"/></g><g><path d="m490.237 466.729h-56.147c-4.143 0-7.5-3.357-7.5-7.5s3.357-7.5 7.5-7.5h56.147c4.143 0 7.5 3.357 7.5 7.5s-3.357 7.5-7.5 7.5z" fill="#2b4d66"/></g></g><g><path d="m151.462 485.87h-27.094c-4.143 0-7.5-3.357-7.5-7.5s3.357-7.5 7.5-7.5h19.594v-15.252c0-4.143 3.357-7.5 7.5-7.5s7.5 3.357 7.5 7.5v22.752c0 4.143-3.358 7.5-7.5 7.5z" fill="#4a80aa"/></g><g><path d="m91.435 512h-56.147c-4.143 0-7.5-3.357-7.5-7.5s3.357-7.5 7.5-7.5h56.147c4.143 0 7.5 3.357 7.5 7.5s-3.357 7.5-7.5 7.5z" fill="#2b4d66"/></g><g><path d="m91.435 489.364h-56.147c-4.143 0-7.5-3.357-7.5-7.5s3.357-7.5 7.5-7.5h56.147c4.143 0 7.5 3.357 7.5 7.5s-3.357 7.5-7.5 7.5z" fill="#2b4d66"/></g><g><path d="m91.435 466.729h-56.147c-4.143 0-7.5-3.357-7.5-7.5s3.357-7.5 7.5-7.5h56.147c4.143 0 7.5 3.357 7.5 7.5s-3.357 7.5-7.5 7.5z" fill="#2b4d66"/></g><path d="m236.864 70.88h-204.497c-9.999 0-18.104-8.106-18.104-18.104v-27.172c0-9.999 8.106-18.104 18.104-18.104h204.497c9.999 0 18.104 8.106 18.104 18.104v27.171c0 9.999-8.105 18.105-18.104 18.105z" fill="#365e7d"/><path d="m236.864 7.5h-25.5c9.999 0 18.104 8.105 18.104 18.104v27.172c0 9.999-8.106 18.104-18.104 18.104h25.5c9.999 0 18.104-8.106 18.104-18.104v-27.172c0-9.999-8.105-18.104-18.104-18.104z" fill="#2b4d66"/><g><path d="m191.724 39.635h-114.217c-4.143 0-7.5-3.357-7.5-7.5s3.357-7.5 7.5-7.5h114.218c4.143 0 7.5 3.357 7.5 7.5s-3.358 7.5-7.501 7.5z" fill="#4a80aa"/></g></g></svg>