<?xml version="1.0" encoding="iso-8859-1"?>
<!-- Generator: Adobe Illustrator 18.0.0, SVG Export Plug-In . SVG Version: 6.00 Build 0)  -->
<!DOCTYPE svg PUBLIC "-//W3C//DTD SVG 1.1//EN" "http://www.w3.org/Graphics/SVG/1.1/DTD/svg11.dtd">
<svg version="1.1" id="Capa_1" xmlns="http://www.w3.org/2000/svg" xmlns:xlink="http://www.w3.org/1999/xlink" x="0px" y="0px"
	 viewBox="0 0 248.014 248.014" style="enable-background:new 0 0 248.014 248.014;" xml:space="preserve">
<g>
	<path d="M168.624,72.436c0-24.602-20.016-44.618-44.617-44.618S79.39,47.834,79.39,72.436s20.016,44.618,44.617,44.618
		S168.624,97.038,168.624,72.436z M89.39,72.436c0-19.088,15.529-34.618,34.617-34.618s34.617,15.529,34.617,34.618
		s-15.529,34.618-34.617,34.618S89.39,91.524,89.39,72.436z"/>
	<path d="M118.767,183.109c1.457,1.423,3.349,2.135,5.24,2.135s3.783-0.711,5.24-2.135c0.701-0.685,17.355-17.006,34.279-38.21
		c23.42-29.344,35.295-52.923,35.295-70.084C198.822,33.562,165.26,0,124.007,0S49.193,33.562,49.193,74.815
		c0,17.161,11.875,40.74,35.295,70.084C101.411,166.103,118.066,182.424,118.767,183.109z M124.007,15
		c32.981,0,59.814,26.833,59.814,59.815c0,25.49-39.256,71.144-59.814,92.297c-20.559-21.154-59.814-66.807-59.814-92.297
		C64.193,41.833,91.026,15,124.007,15z"/>
	<path d="M239.229,165.771c-8.074-11.667-22.773-21.568-42.592-28.75c-2.891,4.245-5.889,8.458-8.948,12.609
		c0.407,0.231,0.838,0.431,1.297,0.588c17.928,6.116,31.391,14.67,37.909,24.088c5.679,8.208,5.679,16.531,0,24.738
		c-6.519,9.418-19.981,17.973-37.909,24.088c-18.68,6.372-41.756,9.881-64.979,9.881s-46.299-3.509-64.979-9.881
		c-17.928-6.115-31.391-14.67-37.909-24.088c-5.679-8.208-5.679-16.531,0-24.738c6.519-9.418,19.981-17.973,37.909-24.089
		c0.459-0.156,0.89-0.356,1.297-0.588c-3.059-4.151-6.057-8.364-8.948-12.609c-19.819,7.181-34.518,17.083-42.592,28.75
		c-9.193,13.285-9.193,28.523,0,41.809c8.453,12.214,24.152,22.501,45.401,29.75c20.49,6.989,44.634,10.684,69.82,10.684
		s49.33-3.694,69.82-10.684c21.249-7.249,36.948-17.536,45.401-29.75C248.422,194.295,248.422,179.057,239.229,165.771z"/>
	<path d="M73.622,166.878c-2.191-2.728-4.384-5.508-6.565-8.332c-10.532,3.765-18.475,8.547-23.209,14.037
		c-6.813,7.898-6.813,17.329,0,25.228c5.926,6.871,16.866,12.64,31.638,16.683c13.559,3.711,29.427,5.751,46.036,5.936
		c0.828,0.009,1.656,0.018,2.487,0.018s1.659-0.009,2.487-0.018c16.609-0.186,32.477-2.226,46.036-5.936
		c14.771-4.043,25.712-9.812,31.638-16.683c6.813-7.898,6.813-17.329,0-25.228c-4.734-5.489-12.677-10.272-23.209-14.037
		c-2.181,2.824-4.374,5.603-6.565,8.332c10.408,3.321,18.203,7.599,22.203,12.236c3.628,4.207,3.628,7.958,0,12.165
		c-4.558,5.284-14.041,10.103-26.706,13.569c-9.809,2.685-21.333,4.471-33.335,5.211c-4.143,0.256-8.341,0.389-12.547,0.389
		s-8.404-0.133-12.547-0.389c-12.002-0.741-23.526-2.527-33.335-5.211c-12.665-3.466-22.148-8.285-26.706-13.569
		c-3.628-4.207-3.628-7.958,0-12.165C55.419,174.477,63.214,170.199,73.622,166.878z"/>
</g>
<g>
</g>
<g>
</g>
<g>
</g>
<g>
</g>
<g>
</g>
<g>
</g>
<g>
</g>
<g>
</g>
<g>
</g>
<g>
</g>
<g>
</g>
<g>
</g>
<g>
</g>
<g>
</g>
<g>
</g>
</svg>
