<svg id="Capa_1" enable-background="new 0 0 512 512" height="512" viewBox="0 0 512 512" width="512" xmlns="http://www.w3.org/2000/svg"><g><g><path d="m446.662 426.814c40.621-45.31 65.338-105.172 65.338-170.814 0-141.385-114.615-256-256-256s-256 114.615-256 256c0 65.642 24.717 125.504 65.338 170.814z" fill="#2498cb"/></g><g><path d="m383.293 229.99c0-22.591-15.263-22.591-15.263-45.182h-.032c.441-5.654.675-11.278.675-16.837 0-82.97-50.445-142.627-112.673-142.627s-112.673 59.657-112.673 142.627c0 5.559.234 11.183.675 16.837h-.032c0 22.591-15.263 22.591-15.263 45.182 0 22.592 15.263 22.592 15.263 45.184 0 22.593-15.263 22.593-15.263 45.186 0 .807.019 1.585.057 2.336 1.205 24.106 21.496 42.849 45.632 42.849h163.208c24.136 0 44.427-18.743 45.632-42.849.038-.751.057-1.529.057-2.336 0-22.593-15.263-22.593-15.263-45.186 0-22.592 15.263-22.592 15.263-45.184z" fill="#9e3a32"/></g><g><g><path d="m252.069 25.434c.403-.017.8-.037 1.213-.049-.405.012-.808.033-1.213.049z" fill="#fff"/><path d="m252.09 25.935-.042-1 1.221-.049.028 1z"/></g><g><path d="m299.695 122.333c-9.972-22.667-28.695-40-49.362-46-19.994-5.805-47.472-48.1.565-50.846-59.859 3.163-107.571 61.795-107.571 142.484 0 5.559.234 11.183.675 16.837h-.032c0 22.591-15.263 22.591-15.263 45.182 0 22.592 15.263 22.592 15.263 45.184 0 22.593-15.263 22.593-15.263 45.186 0 .807.019 1.585.057 2.336 1.205 24.106 21.496 42.849 45.632 42.849h81.604v-170.1l81.181-26.489s-27.514-23.956-37.486-46.623z" fill="#8c2e29"/></g></g><g><path d="m417 364c-22-19.425-117.305-35.119-117.305-35.119v-112.07h-87.39v112.07s-95.305 15.694-117.305 35.119c-2.447 2.161-5.03 5.672-7.689 10.207l48.689 52.607h240l48.69-52.606c-2.659-4.535-5.243-8.047-7.69-10.208z" fill="#f9bd91"/></g><g><path d="m137.024 345.719c-18.117 5.322-34.434 11.579-42.024 18.281-2.447 2.161-5.03 5.672-7.689 10.207l48.689 52.607h72.375c-29.151-21.604-53.552-49.254-71.351-81.095z" fill="#f7ad7c"/></g><g><path d="m87.314 374.209c-7.172 12.231-14.893 31.901-21.977 52.605 46.871 52.282 114.92 85.186 190.663 85.186s143.792-32.904 190.662-85.186c-7.083-20.704-14.805-40.374-21.977-52.605-44.517 16.643-103.711 26.791-168.685 26.791s-124.168-10.148-168.686-26.791z" fill="#f9f991"/></g><g><path d="m387.641 475.571c-8.881.934-17.892 1.429-27.021 1.429-74.077 0-140.79-31.474-187.531-81.769-32.072-4.614-61.169-11.823-85.775-21.022-7.172 12.231-14.893 31.901-21.977 52.605 46.871 52.282 114.92 85.186 190.663 85.186 48.147 0 93.175-13.312 131.641-36.429z" fill="#f9e27d"/></g><g><path d="m260.882 421.066c-1.156-5.227-8.608-5.227-9.764 0l-19.852 89.73c8.142.782 16.388 1.204 24.734 1.204s16.592-.422 24.734-1.203z" fill="#f9e27d"/></g><g><path d="m141 484.745v-62.088c0-5.405-7.385-6.966-9.572-2.023l-20.486 46.298c9.568 6.594 19.609 12.548 30.058 17.813z" fill="#f9f991"/></g><g><path d="m401.058 466.932-20.486-46.298c-2.187-4.943-9.572-3.382-9.572 2.023v62.088c10.449-5.265 20.49-11.219 30.058-17.813z" fill="#f9e27d"/></g><g><path d="m325.075 183.668s8.897-21.662 24.756-16.633-.383 51.97-31.332 54.928z" fill="#f9bd91"/></g><g><path d="m186.925 183.668s-8.897-21.662-24.756-16.633.383 51.97 31.332 54.928z" fill="#f7ad7c"/></g><g><path d="m212.305 216.812v112.07c46.932 0 73.247-36.019 73.247-36.019l14.143-76.05h-87.39z" fill="#f7ad7c"/></g><g><path d="m336.618 168.956c-32.084-5.207-52.614-22.522-64.923-37.924-8.069-10.097-23.322-10.097-31.392 0-12.309 15.402-32.838 32.717-64.923 37.924h-.562c-.041 1.413-.069 2.833-.069 4.266 0 59.83 36.377 129.999 81.25 129.999s81.25-70.169 81.25-129.999c0-1.433-.027-2.853-.069-4.266z" fill="#fcd2ae"/></g><g><path d="m202.691 173.222c0-4.355.212-8.61.587-12.776-8.14 3.805-17.398 6.806-27.896 8.51h-.562c-.041 1.413-.069 2.833-.069 4.266 0 59.83 36.377 129.999 81.25 129.999 4.764 0 9.431-.798 13.97-2.284-38.216-12.506-67.28-74.237-67.28-127.715z" fill="#f9bd91"/></g><g><g><path d="m208.411 82.318c-1.1.455-2.168.951-3.221 1.463.512-1.054 1.007-2.122 1.463-3.221 5.705-13.773 2.441-28.205-7.289-32.235-9.731-4.031-22.243 3.867-27.948 17.639-.456 1.1-.861 2.205-1.244 3.312-.383-1.107-.788-2.213-1.244-3.312-5.705-13.773-18.217-21.67-27.948-17.639-9.731 4.03-12.994 18.463-7.289 32.235.455 1.1.951 2.168 1.463 3.222-1.054-.512-2.122-1.007-3.221-1.463-13.773-5.705-28.205-2.441-32.235 7.289-4.031 9.731 3.867 22.243 17.639 27.948 1.1.456 2.205.861 3.312 1.244-1.107.383-2.213.788-3.312 1.244-13.773 5.705-21.67 18.218-17.64 27.948 4.031 9.731 18.463 12.994 32.235 7.289 1.1-.456 2.168-.951 3.222-1.463-.512 1.054-1.007 2.122-1.463 3.222-5.705 13.773-2.441 28.205 7.289 32.235 9.731 4.03 22.243-3.867 27.948-17.64.456-1.1.861-2.205 1.244-3.312.383 1.107.788 2.213 1.244 3.312 5.705 13.773 18.218 21.67 27.948 17.639 9.731-4.031 12.994-18.463 7.289-32.235-.456-1.1-.951-2.168-1.463-3.221 1.054.512 2.122 1.007 3.222 1.463 13.773 5.705 28.205 2.441 32.235-7.289 4.031-9.731-3.867-22.243-17.639-27.948-1.1-.456-2.205-.861-3.312-1.244 1.107-.383 2.213-.788 3.312-1.244 13.773-5.705 21.67-18.218 17.639-27.948s-18.464-12.995-32.236-7.29z" fill="#dd382c"/></g><g><g><path d="m170.171 118.799s17.682 15.256 39.432 15.256c11.926 0 21.594-6.83 21.594-15.256s-9.668-15.256-21.594-15.256c-21.751 0-39.432 15.256-39.432 15.256z" fill="#f44937"/></g><g><path d="m170.171 179.825c8.426 0 15.256-9.668 15.256-21.594 0-21.75-15.256-39.432-15.256-39.432s-15.256 17.682-15.256 39.432c-.001 11.926 6.83 21.594 15.256 21.594z" fill="#f44937"/></g><g><path d="m170.171 57.774c-8.426 0-15.256 9.668-15.256 21.594 0 21.747 15.252 39.427 15.256 39.432-.005-.004-17.684-15.256-39.432-15.256-11.926 0-21.594 6.83-21.594 15.256s9.668 15.256 21.594 15.256c21.75 0 39.431-15.256 39.432-15.256 0 0 15.256-17.682 15.256-39.432 0-11.926-6.83-21.594-15.256-21.594z" fill="#f44937"/></g></g><g><g><path d="m127.019 75.648c-5.958 5.958-3.952 17.624 4.481 26.057 15.38 15.38 38.67 17.095 38.67 17.095s-1.715-23.291-17.095-38.67c-8.432-8.434-20.098-10.44-26.056-4.482z" fill="#f95f53"/></g><g><path d="m213.322 161.951c5.958-5.958 3.952-17.624-4.481-26.057-15.38-15.38-38.67-17.095-38.67-17.095s1.715 23.291 17.095 38.67c8.432 8.434 20.098 10.44 26.056 4.482z" fill="#f95f53"/></g><g><path d="m127.019 161.951c5.958 5.958 17.624 3.952 26.057-4.481 15.38-15.38 17.095-38.67 17.095-38.67s-23.291 1.715-38.67 17.095c-8.434 8.432-10.44 20.098-4.482 26.056z" fill="#f95f53"/></g><g><path d="m187.265 80.129c-15.38 15.38-17.095 38.67-17.095 38.67s23.291-1.715 38.67-17.095c8.433-8.433 10.439-20.099 4.481-26.057-5.957-5.957-17.623-3.951-26.056 4.482z" fill="#f95f53"/></g></g><g><circle cx="170.171" cy="118.799" fill="#fc7770" r="22.885"/></g></g></g></svg>