<svg viewBox="0 0 512 512" xmlns="http://www.w3.org/2000/svg"><path d="m512 256c0 141.386719-114.613281 256-256 256s-256-114.613281-256-256 114.613281-256 256-256 256 114.613281 256 256zm0 0" fill="#445ea0"/><g fill="#2e4c89"><path d="m301.300781 195.519531c0-8.464843-6.863281-15.332031-15.332031-15.332031h-62.332031c-8.46875 0-15.335938-6.867188-15.335938-15.332031 0-8.46875 6.867188-15.335938 15.335938-15.335938h175.332031c8.46875 0 15.332031 6.867188 15.332031 15.335938 0 8.464843 6.863281 15.332031 15.332031 15.332031h39.335938c8.464844 0 15.332031 6.863281 15.332031 15.332031s-6.867187 15.332031-15.332031 15.332031h-101.335938c-8.46875 0-15.332031 6.867188-15.332031 15.335938 0 8.464844-6.863281 15.332031-15.332031 15.332031h-75.332031c-8.46875 0-15.335938-6.867187-15.335938-15.332031 0-8.46875 6.867188-15.335938 15.335938-15.335938h24.332031c8.46875.003907 15.332031-6.863281 15.332031-15.332031zm0 0"/><path d="m152.949219 233.789062h-39.332031c-8.46875 0-15.335938-6.867187-15.335938-15.335937 0-8.464844-6.863281-15.332031-15.332031-15.332031h-77.46875c-3.582031 17.0625-5.480469 34.75-5.480469 52.878906 0 13.300781 1.015625 26.367188 2.972656 39.121094h17.976563c8.46875 0 15.332031-6.863282 15.332031-15.332032s6.867188-15.332031 15.332031-15.332031h101.335938c8.464843 0 15.332031-6.867187 15.332031-15.335937s-6.863281-15.332032-15.332031-15.332032zm0 0"/><path d="m511.992188 255.292969h-171.515626c-8.46875 0-15.332031 6.867187-15.332031 15.335937 0 8.464844 6.863281 15.332032 15.332031 15.332032h62.332032c8.46875 0 15.332031 6.863281 15.332031 15.332031s-6.863281 15.332031-15.332031 15.332031h-24.332032c-8.46875 0-15.332031 6.867188-15.332031 15.335938 0 8.464843 6.863281 15.332031 15.332031 15.332031h75.332032c8.46875 0 15.332031-6.867188 15.332031-15.332031 0-8.46875 6.867187-15.335938 15.335937-15.335938h20.28125c4.722657-19.433594 7.242188-39.734375 7.242188-60.625 0-.234375-.007812-.46875-.007812-.707031zm0 0"/></g><path d="m497.898438 72.851562-22.648438 50.9375-4.480469 10.082032-166.078125 373.5c-13.441406 2.589844-27.25 4.128906-41.339844 4.527344-2.441406.070312-4.890624.101562-7.351562.101562-2.289062 0-4.578125-.03125-6.859375-.089844l176.929687-397.910156 15.351563-34.511719 11.789063-26.507812c.96875-2.179688 3.527343-3.171875 5.71875-2.199219l11.851562 5.277344 24.917969 11.070312c2.191406.980469 3.171875 3.53125 2.199219 5.722656zm0 0" fill="#bf7e52"/><path d="m424.402344 117.769531 7.730468-17.378906 44.695313 19.875-7.726563 17.378906zm0 0" fill="#aa6b3f"/><path d="m396.550781 180.40625 7.726563-17.378906 44.695312 19.875-7.726562 17.378906zm0 0" fill="#aa6b3f"/><path d="m470.78125 56.058594c-2.179688-.980469-4.75.011718-5.722656 2.203125l-14.136719 31.789062-187.570313 421.847657c-2.441406.070312-4.890624.101562-7.351562.101562-2.289062 0-4.578125-.03125-6.859375-.089844l176.929687-397.910156 15.351563-34.511719 11.789063-26.507812c.96875-2.179688 3.527343-3.171875 5.71875-2.199219zm0 0" fill="#aa6b3f"/><path d="m312.863281 368.589844 62.183594-139.835938 44.695313 19.875-62.183594 139.835938zm0 0" fill="#232323"/><path d="m312.867188 368.59375 62.183593-139.84375 11.847657 5.269531-62.183594 139.84375zm0 0"/><path d="m361.164062 259.980469 5.265626-11.851563 44.699218 19.875-5.269531 11.851563zm0 0"/><path d="m405.109375 281.542969-5.84375 13.144531-54.886719 3.042969 5.914063-13.300781 54.796875-3.035157zm0 0"/><path d="m376.625 345.601562-5.636719 12.679688-37.058593-37.054688 5.640624-12.6875 20.421876 20.425782zm0 0"/><path d="m335.347656 318.027344 5.269532-11.851563 44.695312 19.875-5.269531 11.851563zm0 0"/><path d="m368.996094 362.761719-5.277344 11.867187-45.667969-17.6875 5.273438-11.867187zm0 0"/><path d="m475.515625 126.285156-46.984375-20.894531c-.988281-.4375-1.429688-1.59375-.992188-2.578125l6.140626-13.808594c.4375-.988281 1.59375-1.429687 2.578124-.992187l46.988282 20.894531c.984375.4375 1.429687 1.59375.992187 2.578125l-6.140625 13.808594c-.4375.984375-1.59375 1.429687-2.582031.992187zm0 0" fill="#bf7e52"/><path d="m447.664062 188.925781-46.984374-20.894531c-.988282-.4375-1.433594-1.59375-.992188-2.578125l6.136719-13.808594c.441406-.988281 1.59375-1.429687 2.582031-.992187l46.984375 20.894531c.988281.4375 1.433594 1.59375.992187 2.582031l-6.136718 13.804688c-.441406.988281-1.597656 1.429687-2.582032.992187zm0 0" fill="#bf7e52"/><path d="m452.152344 420.484375-17.878906-55.3125c-5.46875-16.921875-19.757813-29.496094-37.238282-32.769531l-94.972656-17.789063h-92.125l-94.972656 17.789063c-17.480469 3.273437-31.769532 15.847656-37.238282 32.769531l-17.878906 55.3125c46.960938 55.941406 117.394532 91.515625 196.152344 91.515625s149.191406-35.574219 196.152344-91.515625zm0 0"/><path d="m191.699219 318.027344-76.734375 14.375c-17.480469 3.273437-31.769532 15.847656-37.238282 32.769531l-17.878906 55.3125c46.960938 55.941406 117.394532 91.515625 196.152344 91.515625 46.179688 0 89.496094-12.230469 126.902344-33.625zm0 0" fill="#d9eafc"/><path d="m452.152344 420.484375-17.878906-55.3125c-5.46875-16.921875-19.757813-29.496094-37.238282-32.769531l-76.734375-14.375-191.203125 160.347656c37.40625 21.394531 80.722656 33.625 126.902344 33.625 78.757812 0 149.191406-35.574219 196.152344-91.515625zm0 0" fill="#eef6ff"/><path d="m312.515625 316.59375s-22.417969 13.066406-56.515625 13.066406-56.515625-13.066406-56.515625-13.066406l6.070313-89.199219h100.890624zm0 0" fill="#232323"/><path d="m310.554688 287.761719-4.109376-60.367188h-100.890624l-4.109376 60.367188-1.960937 28.832031s5.140625 2.992188 14.222656 6.109375l2.050781-28.503906c14.851563 5.78125 28.996094 8.535156 40.242188 8.535156 14.820312 0 34.667969-4.769531 54.554688-14.972656zm0 0"/><path d="m370.957031 82.4375c-12.679687-36.023438-42.980469-82.4375-114.957031-82.4375s-102.277344 46.414062-114.957031 82.4375c-7.398438 21.015625-9.15625 43.589844-5.554688 65.578125 5.28125 32.28125 16.914063 87.738281 36.648438 106.742187 28.480469 27.429688 63.820312 37.976563 83.863281 37.976563 20.046875 0 55.382812-10.550781 83.867188-37.976563 19.730468-19 31.363281-74.460937 36.648437-106.742187 3.597656-21.988281 1.839844-44.5625-5.558594-65.578125zm0 0" fill="#eef6ff"/><path d="m334.421875 97.253906h-156.84375c-9.304687 0-17.101563 6.988282-18.167969 16.230469-1.160156 10.023437-.917968 20.304687.746094 30.492187 9.257812 56.554688 21.582031 85.320313 29.320312 92.773438 23.605469 22.734375 52.714844 30.984375 66.523438 30.984375 13.804688 0 42.914062-8.25 66.523438-30.984375 7.738281-7.453125 20.058593-36.21875 29.316406-92.769531 1.667968-10.1875 1.90625-20.472657.75-30.496094-1.066406-9.242187-8.863282-16.230469-18.167969-16.230469zm0 0" fill="#ffc987"/><path d="m177.578125 97.253906c-9.304687 0-17.101563 6.988282-18.167969 16.230469-1.160156 10.023437-.917968 20.304687.746094 30.492187 9.257812 56.554688 21.582031 85.320313 29.320312 92.773438 23.605469 22.734375 52.714844 30.984375 66.523438 30.984375 3.789062 0 8.738281-.625 14.402344-2v-93.914063l-7.621094-10.3125c-4.40625-5.957031-6.78125-13.171874-6.78125-20.582031v-43.671875zm0 0" fill="#f2b675"/><path d="m204.476562 236.75c-7.738281-7.453125-20.0625-36.222656-29.316406-92.773438-2.585937-15.78125-1.738281-31.796874 2.417969-46.722656-9.300781 0-17.101563 6.988282-18.167969 16.230469-1.15625 10.023437-.917968 20.304687.75 30.492187 9.257813 56.550782 21.578125 85.320313 29.316406 92.773438 23.609376 22.734375 52.71875 30.984375 66.523438 30.984375 2.152344 0 4.679688-.203125 7.5-.625-15.253906-2.300781-39.097656-11.171875-59.023438-30.359375zm0 0" fill="#e5a565"/><path d="m187.136719 254.757812c-19.734375-19-31.367188-74.460937-36.652344-106.742187-3.597656-21.988281-1.839844-44.5625 5.558594-65.578125 12.230469-34.746094 40.859375-79.152344 107.457031-82.257812-2.449219-.1132818-4.945312-.179688-7.5-.179688-71.976562 0-102.277344 46.414062-114.957031 82.4375-7.398438 21.015625-9.15625 43.589844-5.554688 65.578125 5.28125 32.28125 16.914063 87.742187 36.648438 106.742187 28.480469 27.429688 63.820312 37.976563 83.863281 37.976563 2.308594 0 4.824219-.148437 7.5-.4375-20.59375-2.21875-51.160156-13.265625-76.363281-37.539063zm0 0" fill="#d9eafc"/><path d="m255.019531 171.164062c-35.417969 0-65.75 10.507813-85.109375 19.414063 7.042969 26.40625 14.347656 41.144531 19.566406 46.171875 23.609376 22.734375 52.71875 30.984375 66.523438 30.984375s42.914062-8.25 66.523438-30.984375c5.164062-4.976562 12.371093-19.464844 19.347656-45.359375-19.25-9.066406-50.355469-20.226563-86.851563-20.226563zm0 0" fill="#232323"/><path d="m204.476562 236.75c-5.582031-5.378906-13.550781-21.855469-21.035156-51.855469-4.953125 1.890625-9.484375 3.824219-13.53125 5.683594 7.042969 26.40625 14.347656 41.144531 19.566406 46.171875 23.605469 22.734375 52.714844 30.984375 66.523438 30.984375 2.152344 0 4.679688-.203125 7.5-.625-15.253906-2.300781-39.097656-11.171875-59.023438-30.359375zm0 0"/><path d="m136.042969 82.4375c-4.191407 11.914062-6.5625 24.332031-7.179688 36.859375-.160156 3.210937 2.445313 5.890625 5.664063 5.890625h242.945312c3.21875 0 5.824219-2.679688 5.664063-5.890625-.617188-12.527344-2.988281-24.945313-7.183594-36.859375-1.105469-3.152344-2.351563-6.378906-3.746094-9.652344-.894531-2.09375-2.949219-3.460937-5.226562-3.460937h-221.960938c-2.277343 0-4.332031 1.367187-5.226562 3.460937-1.394531 3.273438-2.640625 6.5-3.75 9.652344zm0 0" fill="#232323"/><path d="m143.863281 119.296875c.617188-12.527344 2.988281-24.945313 7.179688-36.859375 1.109375-3.152344 2.355469-6.378906 3.75-9.652344.894531-2.09375 2.949219-3.460937 5.226562-3.460937h-15c-2.277343 0-4.332031 1.367187-5.226562 3.460937-1.394531 3.273438-2.640625 6.5-3.75 9.652344-4.191407 11.914062-6.5625 24.332031-7.179688 36.859375-.160156 3.210937 2.445313 5.890625 5.664063 5.890625h15c-3.21875 0-5.824219-2.679688-5.664063-5.890625zm0 0"/><path d="m302.722656 127.734375h-93.445312c-1.992188 0-3.609375-1.617187-3.609375-3.613281v-53.734375c0-1.992188 1.617187-3.609375 3.609375-3.609375h93.445312c1.996094 0 3.613282 1.617187 3.613282 3.609375v53.734375c-.003907 1.996094-1.621094 3.613281-3.613282 3.613281zm0 0" fill="#999cad"/><path d="m220.667969 111.078125v-27.648437c0-.914063.738281-1.652344 1.652343-1.652344h67.359376c.914062 0 1.652343.738281 1.652343 1.652344v27.648437c0 .914063-.738281 1.65625-1.652343 1.65625h-67.359376c-.914062 0-1.652343-.742187-1.652343-1.65625zm0 0" fill="#80859b"/></svg>